<svg width="158" height="138" viewBox="0 0 158 138" fill="none" xmlns="http://www.w3.org/2000/svg">
<path d="M158 46.7523C158 36.5592 150.076 28.3032 140.292 28.3032C130.508 28.3032 122.583 36.5592 122.583 46.7523C122.583 55.1467 127.962 62.2266 135.311 64.4635C135.178 68.1764 134.382 71.036 132.876 72.9732C129.467 77.401 121.964 78.139 114.017 78.9C107.775 79.4996 101.311 80.1453 96.0208 82.7974V49.5889C103.215 47.2366 108.417 40.249 108.417 31.993C108.417 21.7999 100.492 13.5439 90.7083 13.5439C80.9245 13.5439 73 21.7999 73 31.993C73 40.249 78.2018 47.2366 85.3958 49.5889V95.5503C78.2018 97.9257 73 104.913 73 113.169C73 123.362 80.9245 131.618 90.7083 131.618C100.492 131.618 108.417 123.362 108.417 113.169C108.417 105.328 103.724 98.6175 97.0833 95.9654C97.7695 94.7662 98.8099 93.7054 100.382 92.8752C103.967 90.9842 109.324 90.4768 115.013 89.9233C124.354 89.024 134.935 87.9862 141.177 79.9147C144.276 75.902 145.848 70.7362 145.958 64.256C152.953 61.7653 158 54.87 158 46.7523ZM90.7083 28.3032C92.6563 28.3032 94.25 29.9636 94.25 31.993C94.25 34.0224 92.6563 35.6829 90.7083 35.6829C88.7604 35.6829 87.1667 34.0224 87.1667 31.993C87.1667 29.9636 88.7604 28.3032 90.7083 28.3032ZM90.7083 116.859C88.7604 116.859 87.1667 115.199 87.1667 113.169C87.1667 111.14 88.7604 109.479 90.7083 109.479C92.6563 109.479 94.25 111.14 94.25 113.169C94.25 115.199 92.6563 116.859 90.7083 116.859ZM140.292 43.0625C142.24 43.0625 143.833 44.7229 143.833 46.7523C143.833 48.7818 142.24 50.4422 140.292 50.4422C138.344 50.4422 136.75 48.7818 136.75 46.7523C136.75 44.7229 138.344 43.0625 140.292 43.0625Z" fill="white"/>
<path d="M71.9446 17.5314C63.6352 12.1502 52.7215 14.8035 47.5564 23.4605C42.3913 32.1174 44.938 43.4877 53.2473 48.8689C60.0903 53.3005 68.7014 52.2787 74.4046 46.9571C77.3612 49.0348 79.2717 51.2495 80.0562 53.604C81.8661 58.9578 78.5062 65.987 74.9314 73.4201C72.1248 79.2599 69.2389 85.3199 68.608 91.401L41.5367 73.8695C43.4171 66.2623 40.467 57.9707 33.7368 53.6121C25.4274 48.2309 14.5137 50.8842 9.34861 59.5412C4.1835 68.1981 6.7302 79.5684 15.0396 84.9496C21.7698 89.3081 30.2122 88.3944 35.9276 83.2707L73.3949 107.535C71.5334 115.154 74.4834 123.446 81.2136 127.804C89.523 133.186 100.437 130.532 105.602 121.875C110.767 113.218 108.22 101.848 99.9109 96.4669C93.5191 92.3275 85.571 92.9369 79.9034 97.4126C79.2881 96.1723 78.9725 94.6917 79.1254 92.8629C79.477 88.6916 81.8913 83.684 84.4434 78.3582C88.6416 69.6181 93.3814 59.7082 90.097 49.9239C88.4619 45.0634 85.0805 40.9457 79.8563 37.4267C81.5186 29.9227 78.562 21.8169 71.9446 17.5314ZM21.3803 67.3329C22.4086 65.6094 24.6035 65.0758 26.2579 66.1471C27.9123 67.2185 28.4244 69.5053 27.3961 71.2288C26.3677 72.9524 24.1728 73.486 22.5185 72.4146C20.8641 71.3433 20.3519 69.0565 21.3803 67.3329ZM93.5702 114.084C92.5418 115.807 90.3469 116.341 88.6925 115.269C87.0382 114.198 86.526 111.911 87.5543 110.188C88.5827 108.464 90.7776 107.93 92.432 109.002C94.0863 110.073 94.5985 112.36 93.5702 114.084ZM59.588 31.2522C60.6164 29.5287 62.8113 28.9951 64.4657 30.0664C66.12 31.1378 66.6322 33.4246 65.6039 35.1481C64.5755 36.8717 62.3806 37.4053 60.7262 36.3339C59.0719 35.2626 58.5597 32.9758 59.588 31.2522Z" fill="white"/>
<rect x="74" y="75.1462" width="19" height="24.0158" fill="white"/>
</svg>
