<svg width="25" height="25" viewBox="0 0 25 25" fill="none" xmlns="http://www.w3.org/2000/svg">
<path d="M11.0049 11.0044C10.3945 11.6147 10.3945 12.604 11.0049 13.2139C11.6147 13.8242 12.6045 13.8242 13.2144 13.2139C13.8247 12.6035 13.8247 11.6143 13.2144 11.0044C12.604 10.3945 11.6147 10.3945 11.0049 11.0044ZM12.1094 0C5.42139 0 0 5.42139 0 12.1094C0 18.7974 5.42139 24.2188 12.1094 24.2188C18.7974 24.2188 24.2188 18.7974 24.2188 12.1094C24.2188 5.42139 18.7974 0 12.1094 0ZM18.2686 7.229L15.0474 14.2773C14.8916 14.6182 14.6182 14.8916 14.2773 15.0474L7.22949 18.2686C6.4165 18.6401 5.57861 17.8022 5.9502 16.9893L9.17188 9.94092C9.32768 9.60005 9.60103 9.3267 9.94189 9.1709L16.9897 5.94971C17.8027 5.57861 18.6401 6.41602 18.2686 7.229Z" fill="#C4C4C4"/>
</svg>
