<svg width="70" height="70" viewBox="0 0 70 70" fill="none" xmlns="http://www.w3.org/2000/svg">
<circle cx="35" cy="35" r="34.5" fill="white" stroke="#DC2626"/>
<path d="M50 28.3335C47.5833 28.3335 46.2333 30.7335 46.7833 32.5168L40.8666 38.4502C40.3666 38.3002 39.6333 38.3002 39.1333 38.4502L34.8833 34.2002C35.45 32.4168 34.1 30.0002 31.6666 30.0002C29.25 30.0002 27.8833 32.4002 28.45 34.2002L20.85 41.7835C19.0666 41.2335 16.6666 42.5835 16.6666 45.0002C16.6666 46.8335 18.1666 48.3335 20 48.3335C22.4166 48.3335 23.7666 45.9335 23.2166 44.1502L30.8 36.5502C31.3 36.7002 32.0333 36.7002 32.5333 36.5502L36.7833 40.8002C36.2166 42.5835 37.5666 45.0002 40 45.0002C42.4166 45.0002 43.7833 42.6002 43.2166 40.8002L49.15 34.8835C50.9333 35.4335 53.3333 34.0835 53.3333 31.6668C53.3333 29.8335 51.8333 28.3335 50 28.3335Z" fill="#5497CB"/>
<path d="M40 30L41.5667 26.55L45 25L41.5667 23.45L40 20L38.4667 23.45L35 25L38.4667 26.55L40 30Z" fill="#DC2626"/>
<path d="M20.8333 33.3333L21.6666 30L25 29.1667L21.6666 28.3333L20.8333 25L20 28.3333L16.6666 29.1667L20 30L20.8333 33.3333Z" fill="#DC2626"/>
</svg>
