<svg width="14" height="12" viewBox="0 0 14 12" fill="none" xmlns="http://www.w3.org/2000/svg">
<path d="M6.66667 2.66667V0H0V12H13.3333V2.66667H6.66667ZM2.66667 10.6667H1.33333V9.33333H2.66667V10.6667ZM2.66667 8H1.33333V6.66667H2.66667V8ZM2.66667 5.33333H1.33333V4H2.66667V5.33333ZM2.66667 2.66667H1.33333V1.33333H2.66667V2.66667ZM5.33333 10.6667H4V9.33333H5.33333V10.6667ZM5.33333 8H4V6.66667H5.33333V8ZM5.33333 5.33333H4V4H5.33333V5.33333ZM5.33333 2.66667H4V1.33333H5.33333V2.66667ZM12 10.6667H6.66667V9.33333H8V8H6.66667V6.66667H8V5.33333H6.66667V4H12V10.6667ZM10.6667 5.33333H9.33333V6.66667H10.6667V5.33333ZM10.6667 8H9.33333V9.33333H10.6667V8Z" fill="#3aa6ef"/>
<defs>
<linearGradient id="paint0_linear_298_781" x1="6.66667" y1="0" x2="6.66667" y2="12" gradientUnits="userSpaceOnUse">
<stop stop-color="#FD749B"/>
<stop offset="1" stop-color="#281AC8"/>
</linearGradient>
</defs>
</svg>
