<svg width="15" height="13" viewBox="0 0 15 13" fill="none" xmlns="http://www.w3.org/2000/svg">
<path d="M13.4582 3.23983C13.4677 3.38201 13.4677 3.52422 13.4677 3.66641C13.4677 8.0031 10.3744 13 4.72083 13C2.97906 13 1.36105 12.4617 0 11.5274C0.247472 11.5578 0.485393 11.568 0.742386 11.568C2.17955 11.568 3.50254 11.05 4.55902 10.1664C3.20749 10.1359 2.07487 9.19141 1.68464 7.8914C1.87501 7.92185 2.06535 7.94217 2.26524 7.94217C2.54125 7.94217 2.81729 7.90153 3.07425 7.83047C1.66562 7.52576 0.609114 6.20546 0.609114 4.61093V4.57032C1.01836 4.81407 1.49429 4.96641 1.9987 4.9867C1.17065 4.39763 0.628157 3.39217 0.628157 2.25466C0.628157 1.6453 0.780413 1.08671 1.04693 0.599204C2.56026 2.58983 4.83503 3.88981 7.38577 4.03202C7.33819 3.78827 7.30963 3.53439 7.30963 3.28047C7.30963 1.47264 8.6802 0 10.3839 0C11.269 0 12.0685 0.396093 12.6301 1.03594C13.3249 0.893757 13.9911 0.619524 14.5812 0.243752C14.3528 1.00549 13.8674 1.64533 13.2297 2.05155C13.8484 1.98049 14.448 1.79764 15 1.54376C14.5813 2.19373 14.0578 2.77262 13.4582 3.23983Z" fill="white"/>
</svg>
