<svg width="70" height="70" viewBox="0 0 70 70" fill="none" xmlns="http://www.w3.org/2000/svg">
<circle cx="35" cy="35" r="33.5" fill="white" stroke="#DC2626" stroke-width="3"/>
<path d="M35 18.3335C28.5667 18.3335 23.3334 23.5668 23.3334 30.0002C23.3334 38.7502 35 51.6668 35 51.6668C35 51.6668 46.6667 38.7502 46.6667 30.0002C46.6667 23.5668 41.4334 18.3335 35 18.3335ZM35 21.6668C36.8334 21.6668 38.3334 23.1668 38.3334 25.0002C38.3334 26.8502 36.8334 28.3335 35 28.3335C33.1667 28.3335 31.6667 26.8502 31.6667 25.0002C31.6667 23.1668 33.1667 21.6668 35 21.6668ZM35 38.3335C32.2167 38.3335 29.7667 36.9168 28.3334 34.7502C28.3667 32.5502 32.7834 31.3335 35 31.3335C37.2167 31.3335 41.6334 32.5502 41.6667 34.7502C40.2334 36.9168 37.7834 38.3335 35 38.3335Z" fill="#5497CB"/>
</svg>
