<svg width="22" height="22" viewBox="0 0 22 22" fill="none" xmlns="http://www.w3.org/2000/svg">
<path d="M19.6429 22H2.35714C1.0558 22 0 20.9442 0 19.6429V2.35714C0 1.0558 1.0558 0 2.35714 0H19.6429C20.9442 0 22 1.0558 22 2.35714V19.6429C22 20.9442 20.9442 22 19.6429 22ZM11.6924 7.16473L5.02857 13.8286L4.7192 16.6326C4.67991 17.0058 4.9942 17.325 5.37232 17.2857L8.17634 16.9763L14.8402 10.3125C14.9531 10.1996 14.9531 10.0129 14.8402 9.89509L12.1147 7.16964C11.992 7.05179 11.8054 7.05179 11.6924 7.16473ZM16.942 6.53616L15.4638 5.05804C15.0022 4.59643 14.2558 4.59643 13.7991 5.05804L12.6647 6.19241C12.5518 6.30536 12.5518 6.49196 12.6647 6.60982L15.3902 9.33527C15.5031 9.44822 15.6897 9.44822 15.8076 9.33527L16.942 8.20089C17.3987 7.7442 17.3987 6.99777 16.942 6.53616Z" fill="#21759B"/>
</svg>
