<svg width="92" height="104" viewBox="0 0 92 104" fill="none" xmlns="http://www.w3.org/2000/svg">
<path d="M67.9638 24.265L62.2138 26.565C61.0063 25.645 59.7413 24.8975 58.3613 24.3225L57.4988 18.2275C57.3838 17.6525 56.9238 17.25 56.3488 17.25H47.1488C46.5738 17.25 46.1138 17.6525 46.0563 18.2275L45.1938 24.3225C43.8138 24.8975 42.4913 25.645 41.3413 26.565L35.5913 24.265C35.0738 24.0925 34.4413 24.265 34.2113 24.7825L29.6113 32.7175C29.3238 33.235 29.4388 33.8675 29.8988 34.2125L34.7863 38.0075C34.6138 38.6975 34.4988 39.5025 34.4988 40.25C34.4988 40.9975 34.5563 41.745 34.6713 42.4925L29.8413 46.2875C29.3813 46.6325 29.2663 47.265 29.5538 47.725L34.1538 55.7175C34.4413 56.235 35.0163 56.4075 35.5913 56.235L41.2838 53.935C42.4913 54.855 43.7563 55.6025 45.1938 56.1775L45.9988 62.2725C46.1138 62.8475 46.5738 63.25 47.1488 63.25H56.3488C56.9238 63.25 57.3838 62.8475 57.4988 62.2725L58.3613 56.1775C59.7413 55.6025 61.0638 54.855 62.2138 53.935L67.9063 56.235C68.4238 56.465 69.0563 56.235 69.2863 55.7175L73.8863 47.725C74.1738 47.2075 74.0588 46.6325 73.5988 46.2875L68.8263 42.4925C68.9413 41.745 68.9988 40.9975 68.9988 40.25C68.9988 39.445 68.9413 38.6975 68.8263 38.0075L73.7138 34.2125C74.1738 33.8675 74.2888 33.235 74.0013 32.7175L69.4013 24.7825C69.1138 24.265 68.4813 24.0925 67.9638 24.265ZM51.7488 48.4725C47.2063 48.4725 43.5263 44.7925 43.5263 40.25C43.5263 35.7075 47.2063 32.0275 51.7488 32.0275C56.2913 32.0275 59.9713 35.7075 59.9713 40.25C59.9713 44.7925 56.2913 48.4725 51.7488 48.4725Z" fill="white"/>
<path d="M91.6541 34.845C89.1816 16.0425 73.0816 1.15 54.1066 0.0574999C53.3016 -5.3551e-08 52.5541 0 51.7491 0C31.4516 0 14.7766 15.0075 11.9591 34.5L0.861622 54.51C-1.49588 58.305 1.26412 63.25 5.74912 63.25H11.4991V74.75C11.4991 81.075 16.6741 86.25 22.9991 86.25H28.7491V103.5H68.9991V76.59C84.0641 69.4025 94.0116 53.13 91.6541 34.845ZM62.6166 66.8725L57.4991 69.2875V92H40.2491V74.75H22.9991V51.75H15.5241L23.1716 38.3525C24.2066 23.345 36.5116 11.5 51.7491 11.5C67.6191 11.5 80.4991 24.38 80.4991 40.25C80.4991 52.2675 73.0816 62.56 62.6166 66.8725Z" fill="white"/>
</svg>
