<svg width="104" height="104" viewBox="0 0 104 104" fill="none" xmlns="http://www.w3.org/2000/svg">
<path d="M51.75 28.75C39.0425 28.75 28.75 39.0425 28.75 51.75C28.75 64.4575 39.0425 74.75 51.75 74.75C64.4575 74.75 74.75 64.4575 74.75 51.75C74.75 39.0425 64.4575 28.75 51.75 28.75ZM11.5 69H0V92C0 98.325 5.175 103.5 11.5 103.5H34.5V92H11.5V69ZM11.5 11.5H34.5V0H11.5C5.175 0 0 5.175 0 11.5V34.5H11.5V11.5ZM92 0H69V11.5H92V34.5H103.5V11.5C103.5 5.175 98.325 0 92 0ZM92 92H69V103.5H92C98.325 103.5 103.5 98.325 103.5 92V69H92V92Z" fill="#5497CB"/>
</svg>
