<svg width="70" height="70" viewBox="0 0 70 70" fill="none" xmlns="http://www.w3.org/2000/svg">
<circle cx="35" cy="35" r="33.5" fill="white" stroke-width="3"/>
<path d="M26.0333 32.9833C28.4333 37.7 32.3 41.55 37.0167 43.9667L40.6833 40.3C41.1333 39.85 41.8 39.7 42.3833 39.9C44.25 40.5167 46.2667 40.85 48.3333 40.85C49.25 40.85 50 41.6 50 42.5167V48.3333C50 49.25 49.25 50 48.3333 50C32.6833 50 20 37.3167 20 21.6667C20 20.75 20.75 20 21.6667 20H27.5C28.4167 20 29.1667 20.75 29.1667 21.6667C29.1667 23.75 29.5 25.75 30.1167 27.6167C30.3 28.2 30.1667 28.85 29.7 29.3167L26.0333 32.9833Z" fill="#5497CB"/>
</svg>
