<svg width="70" height="70" viewBox="0 0 70 70" fill="none" xmlns="http://www.w3.org/2000/svg">
<circle cx="35" cy="35" r="33.5" fill="white" stroke="#DC2626" stroke-width="3"/>
<path d="M25 36.6667C21.3334 36.6667 18.3334 39.6667 18.3334 43.3333C18.3334 47 21.3334 50 25 50C28.6667 50 31.6667 47 31.6667 43.3333C31.6667 39.6667 28.6667 36.6667 25 36.6667ZM35 20C31.3334 20 28.3334 23 28.3334 26.6667C28.3334 30.3333 31.3334 33.3333 35 33.3333C38.6667 33.3333 41.6667 30.3333 41.6667 26.6667C41.6667 23 38.6667 20 35 20ZM45 36.6667C41.3334 36.6667 38.3334 39.6667 38.3334 43.3333C38.3334 47 41.3334 50 45 50C48.6667 50 51.6667 47 51.6667 43.3333C51.6667 39.6667 48.6667 36.6667 45 36.6667Z" fill="#5497CB"/>
</svg>
