<svg width="60" height="54" viewBox="0 0 60 54" fill="none" xmlns="http://www.w3.org/2000/svg">
<path d="M6.265 11.576L5.5 11.0979V12V18V18.2771L5.735 18.424L29.735 33.424L30.0003 33.5898L30.2654 33.4237L45.9588 23.5932C47.5537 24.1597 49.2178 24.5 51 24.5C54.1562 24.5 57.0577 23.5195 59.5 21.904V53.5H0.5V6.5H35.7065C35.5799 7.30762 35.5 8.15174 35.5 9C35.5 13.3543 37.3145 17.2319 40.1943 20.0496L30.0002 26.4105L6.265 11.576ZM51 17.5C46.2961 17.5 42.5 13.7039 42.5 9C42.5 4.29614 46.2961 0.5 51 0.5C55.7039 0.5 59.5 4.29614 59.5 9C59.5 13.7039 55.7039 17.5 51 17.5Z" fill="white" stroke="#DC2626"/>
</svg>
