<svg width="18" height="16" viewBox="0 0 18 16" fill="none" xmlns="http://www.w3.org/2000/svg">
<path d="M13.8 6.59998L17 6.59998L17 2.59998L13.8 2.59999L13.8 6.59998Z" stroke="url(#paint0_linear_179_22)" stroke-linecap="round" stroke-linejoin="round"/>
<path d="M15.3999 6.7594L15.3999 14.7594" stroke="url(#paint1_linear_179_22)" stroke-linecap="round" stroke-linejoin="round"/>
<path d="M7.4001 9.79993L10.6001 9.79993L10.6001 5.79993L7.40009 5.79994L7.4001 9.79993Z" stroke="url(#paint2_linear_179_22)" stroke-linecap="round" stroke-linejoin="round"/>
<path d="M9 10.7594V14.7594" stroke="url(#paint3_linear_179_22)" stroke-linecap="round" stroke-linejoin="round"/>
<path d="M9 1.15942V5.15942" stroke="url(#paint4_linear_179_22)" stroke-linecap="round" stroke-linejoin="round"/>
<path d="M15.3999 1.15942V1.95942" stroke="url(#paint5_linear_179_22)" stroke-linecap="round" stroke-linejoin="round"/>
<path d="M0.999956 13L4.19995 13L4.19994 9.00001L0.999946 9.00001L0.999956 13Z" stroke="url(#paint6_linear_179_22)" stroke-linecap="round" stroke-linejoin="round"/>
<path d="M2.6001 8.99999L2.6001 1" stroke="url(#paint7_linear_179_22)" stroke-linecap="round" stroke-linejoin="round"/>
<path d="M2.6001 14.5999V13.7999" stroke="url(#paint8_linear_179_22)" stroke-linecap="round" stroke-linejoin="round"/>
<defs>
<linearGradient id="paint0_linear_179_22" x1="15.24" y1="7.22961" x2="14.9581" y2="0.147743" gradientUnits="userSpaceOnUse">
<stop stop-color="#FD749B"/>
<stop offset="1" stop-color="#281AC8"/>
</linearGradient>
<linearGradient id="paint1_linear_179_22" x1="15.5573" y1="11.1594" x2="13.7841" y2="11.1665" gradientUnits="userSpaceOnUse">
<stop stop-color="#FD749B"/>
<stop offset="1" stop-color="#281AC8"/>
</linearGradient>
<linearGradient id="paint2_linear_179_22" x1="8.8401" y1="10.4296" x2="8.55815" y2="3.34769" gradientUnits="userSpaceOnUse">
<stop stop-color="#FD749B"/>
<stop offset="1" stop-color="#281AC8"/>
</linearGradient>
<linearGradient id="paint3_linear_179_22" x1="9.15741" y1="12.9594" x2="7.38424" y2="12.9735" gradientUnits="userSpaceOnUse">
<stop stop-color="#FD749B"/>
<stop offset="1" stop-color="#281AC8"/>
</linearGradient>
<linearGradient id="paint4_linear_179_22" x1="9.15741" y1="3.35942" x2="7.38424" y2="3.37354" gradientUnits="userSpaceOnUse">
<stop stop-color="#FD749B"/>
<stop offset="1" stop-color="#281AC8"/>
</linearGradient>
<linearGradient id="paint5_linear_179_22" x1="15.5573" y1="1.59942" x2="13.7868" y2="1.66991" gradientUnits="userSpaceOnUse">
<stop stop-color="#FD749B"/>
<stop offset="1" stop-color="#281AC8"/>
</linearGradient>
<linearGradient id="paint6_linear_179_22" x1="2.43996" y1="13.6296" x2="2.15801" y2="6.54777" gradientUnits="userSpaceOnUse">
<stop stop-color="#FD749B"/>
<stop offset="1" stop-color="#281AC8"/>
</linearGradient>
<linearGradient id="paint7_linear_179_22" x1="2.75751" y1="5.39999" x2="0.984258" y2="5.40705" gradientUnits="userSpaceOnUse">
<stop stop-color="#FD749B"/>
<stop offset="1" stop-color="#281AC8"/>
</linearGradient>
<linearGradient id="paint8_linear_179_22" x1="2.75751" y1="14.2399" x2="0.987036" y2="14.3104" gradientUnits="userSpaceOnUse">
<stop stop-color="#FD749B"/>
<stop offset="1" stop-color="#281AC8"/>
</linearGradient>
</defs>
</svg>
