<svg width="70" height="70" viewBox="0 0 70 70" fill="none" xmlns="http://www.w3.org/2000/svg">
<circle cx="35" cy="35" r="34.5" fill="white" stroke="#DC2626"/>
<path d="M48.3333 38.3337C50.1743 38.3337 51.6667 36.8413 51.6667 35.0003C51.6667 33.1594 50.1743 31.667 48.3333 31.667C46.4924 31.667 45 33.1594 45 35.0003C45 36.8413 46.4924 38.3337 48.3333 38.3337Z" fill="#5497CB"/>
<path d="M21.6667 38.3337C23.5077 38.3337 25 36.8413 25 35.0003C25 33.1594 23.5077 31.667 21.6667 31.667C19.8258 31.667 18.3334 33.1594 18.3334 35.0003C18.3334 36.8413 19.8258 38.3337 21.6667 38.3337Z" fill="#5497CB"/>
<path d="M35 51.6667C36.8409 51.6667 38.3333 50.1743 38.3333 48.3333C38.3333 46.4924 36.8409 45 35 45C33.159 45 31.6666 46.4924 31.6666 48.3333C31.6666 50.1743 33.159 51.6667 35 51.6667Z" fill="#5497CB"/>
<path d="M31.75 29.3165L25.05 22.5832H25.0333L24.5167 22.0498L22.15 24.3998L28.85 31.1498L28.8667 31.1332L29.3833 31.6665L31.75 29.3165ZM38.2383 29.3615L45.58 22.0415L47.9333 24.3998L40.5917 31.7215L38.2383 29.3615ZM31.6833 40.5998L29.3167 38.2498L22.6 44.9332L22.0667 45.4832L24.4167 47.8332L31.1333 41.1332L31.6833 40.5998ZM47.9333 45.4998L41.2833 38.8165L40.6833 38.2332L38.3333 40.5832L44.9833 47.2665L45.5667 47.8498L47.9333 45.4998Z" fill="#DC2626"/>
<path d="M35 24.9997C36.8409 24.9997 38.3333 23.5073 38.3333 21.6663C38.3333 19.8254 36.8409 18.333 35 18.333C33.159 18.333 31.6666 19.8254 31.6666 21.6663C31.6666 23.5073 33.159 24.9997 35 24.9997Z" fill="#5497CB"/>
</svg>
