<svg width="20" height="24" viewBox="0 0 20 24" fill="none" xmlns="http://www.w3.org/2000/svg">
<path d="M9.55154 24C11.0576 24 12.2793 22.657 12.2793 21H6.82382C6.82382 22.657 8.04547 24 9.55154 24ZM18.7359 16.9823C17.9121 16.0092 16.3706 14.5453 16.3706 9.75C16.3706 6.10781 14.0476 3.19219 10.9152 2.47688V1.5C10.9152 0.671719 10.3046 0 9.55154 0C8.79851 0 8.18789 0.671719 8.18789 1.5V2.47688C5.05551 3.19219 2.73245 6.10781 2.73245 9.75C2.73245 14.5453 1.19098 16.0092 0.367166 16.9823C0.111322 17.2847 -0.00210255 17.6461 2.94813e-05 18C0.00471996 18.7687 0.553505 19.5 1.3688 19.5H17.7343C18.5496 19.5 19.0988 18.7687 19.1031 18C19.1052 17.6461 18.9918 17.2842 18.7359 16.9823V16.9823Z" fill="#21759B"/>
</svg>
