<svg width="158" height="138" viewBox="0 0 158 138" fill="none" xmlns="http://www.w3.org/2000/svg">
<path d="M158 46.7509C158 36.558 150.076 28.3023 140.292 28.3023C130.508 28.3023 122.583 36.558 122.583 46.7509C122.583 55.145 127.962 62.2247 135.311 64.4616C135.178 68.1743 134.382 71.0339 132.876 72.971C129.467 77.3986 121.964 78.1366 114.017 78.8976C107.775 79.4972 101.311 80.1429 96.0208 82.7948V49.5874C103.215 47.2352 108.417 40.2478 108.417 31.992C108.417 21.7991 100.492 13.5434 90.7083 13.5434C80.9245 13.5434 73 21.7991 73 31.992C73 40.2478 78.2018 47.2352 85.3958 49.5874V95.5475C78.2018 97.9227 73 104.91 73 113.166C73 123.359 80.9245 131.614 90.7083 131.614C100.492 131.614 108.417 123.359 108.417 113.166C108.417 105.325 103.724 98.6145 97.0833 95.9625C97.7695 94.7634 98.8099 93.7026 100.382 92.8724C103.967 90.9814 109.324 90.4741 115.013 89.9206C124.354 89.0213 134.935 87.9835 141.177 79.9123C144.276 75.8997 145.848 70.7341 145.958 64.254C152.953 61.7634 158 54.8683 158 46.7509ZM90.7083 28.3023C92.6563 28.3023 94.25 29.9627 94.25 31.992C94.25 34.0214 92.6563 35.6817 90.7083 35.6817C88.7604 35.6817 87.1667 34.0214 87.1667 31.992C87.1667 29.9627 88.7604 28.3023 90.7083 28.3023ZM90.7083 116.856C88.7604 116.856 87.1667 115.195 87.1667 113.166C87.1667 111.137 88.7604 109.476 90.7083 109.476C92.6563 109.476 94.25 111.137 94.25 113.166C94.25 115.195 92.6563 116.856 90.7083 116.856ZM140.292 43.0612C142.24 43.0612 143.833 44.7215 143.833 46.7509C143.833 48.7802 142.24 50.4406 140.292 50.4406C138.344 50.4406 136.75 48.7802 136.75 46.7509C136.75 44.7215 138.344 43.0612 140.292 43.0612Z" fill="black"/>
<path d="M71.9446 17.5309C63.6352 12.1499 52.7215 14.803 47.5564 23.4597C42.3913 32.1165 44.938 43.4864 53.2473 48.8674C60.0904 53.2989 68.7014 52.2771 74.4047 46.9557C77.3612 49.0333 79.2717 51.248 80.0562 53.6024C81.8661 58.956 78.5062 65.985 74.9314 73.4179C72.1248 79.2575 69.2389 85.3173 68.608 91.3982L41.5368 73.8673C43.4171 66.2603 40.467 57.9689 33.7368 53.6105C25.4274 48.2295 14.5137 50.8826 9.34861 59.5394C4.1835 68.1961 6.73021 79.566 15.0396 84.9471C21.7698 89.3055 30.2122 88.3917 35.9276 83.2682L73.3949 107.532C71.5334 115.151 74.4835 123.442 81.2137 127.801C89.523 133.182 100.437 130.528 105.602 121.872C110.767 113.215 108.22 101.845 99.9109 96.464C93.5191 92.3247 85.5711 92.9341 79.9034 97.4096C79.2881 96.1694 78.9725 94.6889 79.1254 92.8601C79.477 88.689 81.8914 83.6815 84.4434 78.3559C88.6416 69.6161 93.3814 59.7064 90.097 49.9224C88.4619 45.0621 85.0805 40.9445 79.8563 37.4256C81.5187 29.9218 78.562 21.8162 71.9446 17.5309ZM21.3803 67.3309C22.4086 65.6074 24.6036 65.0738 26.2579 66.1451C27.9123 67.2165 28.4244 69.5032 27.3961 71.2267C26.3678 72.9502 24.1728 73.4838 22.5185 72.4124C20.8641 71.3411 20.3519 69.0544 21.3803 67.3309ZM93.5702 114.08C92.5419 115.804 90.3469 116.337 88.6926 115.266C87.0382 114.195 86.526 111.908 87.5544 110.184C88.5827 108.461 90.7777 107.927 92.432 108.999C94.0864 110.07 94.5986 112.357 93.5702 114.08ZM59.588 31.2513C60.6164 29.5278 62.8113 28.9942 64.4657 30.0655C66.12 31.1368 66.6322 33.4235 65.6039 35.147C64.5755 36.8706 62.3806 37.4042 60.7262 36.3328C59.0719 35.2615 58.5597 32.9748 59.588 31.2513Z" fill="black"/>
<rect x="76" y="75.3392" width="16" height="23.3008" fill="black"/>
</svg>
