<svg width="84" height="84" viewBox="0 0 84 84" fill="none" xmlns="http://www.w3.org/2000/svg">
<path d="M42 0C18.7984 0 0 18.7984 0 42C0 65.2016 18.7984 84 42 84C65.2016 84 84 65.2016 84 42C84 18.7984 65.2016 0 42 0ZM66.3871 46.7419C66.3871 47.8597 65.4726 48.7742 64.3548 48.7742H48.7742V64.3548C48.7742 65.4726 47.8597 66.3871 46.7419 66.3871H37.2581C36.1403 66.3871 35.2258 65.4726 35.2258 64.3548V48.7742H19.6452C18.5274 48.7742 17.6129 47.8597 17.6129 46.7419V37.2581C17.6129 36.1403 18.5274 35.2258 19.6452 35.2258H35.2258V19.6452C35.2258 18.5274 36.1403 17.6129 37.2581 17.6129H46.7419C47.8597 17.6129 48.7742 18.5274 48.7742 19.6452V35.2258H64.3548C65.4726 35.2258 66.3871 36.1403 66.3871 37.2581V46.7419Z" fill="#000000"/>
</svg>
