<svg width="72" height="19" viewBox="0 0 72 19" fill="none" xmlns="http://www.w3.org/2000/svg">
<path d="M1.872 14.664C2.448 15.144 3.096 15.536 3.816 15.84C4.536 16.144 5.376 16.296 6.336 16.296C7.488 16.296 8.4 16.056 9.072 15.576C9.744 15.096 10.08 14.448 10.08 13.632C10.08 13.296 10.032 12.984 9.936 12.696C9.84 12.408 9.648 12.136 9.36 11.88C9.088 11.608 8.696 11.344 8.184 11.088C7.688 10.816 7.04 10.528 6.24 10.224C5.376 9.888 4.64 9.56 4.032 9.24C3.44 8.904 2.96 8.544 2.592 8.16C2.224 7.76 1.96 7.328 1.8 6.864C1.64 6.384 1.56 5.84 1.56 5.232C1.56 4.64 1.68 4.08 1.92 3.552C2.176 3.024 2.544 2.568 3.024 2.184C3.52 1.784 4.12 1.472 4.824 1.248C5.544 1.024 6.36 0.912 7.272 0.912C8.264 0.912 9.152 1.016 9.936 1.224C10.72 1.416 11.496 1.696 12.264 2.064L11.424 4.008C10.88 3.688 10.24 3.424 9.504 3.216C8.784 2.992 8.024 2.88 7.224 2.88C6.168 2.88 5.336 3.088 4.728 3.504C4.12 3.904 3.816 4.44 3.816 5.112C3.816 5.432 3.856 5.72 3.936 5.976C4.032 6.216 4.208 6.456 4.464 6.696C4.736 6.92 5.104 7.152 5.568 7.392C6.048 7.632 6.68 7.896 7.464 8.184C8.392 8.536 9.176 8.896 9.816 9.264C10.456 9.632 10.968 10.024 11.352 10.44C11.736 10.856 12.008 11.304 12.168 11.784C12.344 12.264 12.432 12.792 12.432 13.368C12.432 14.152 12.28 14.848 11.976 15.456C11.672 16.064 11.248 16.584 10.704 17.016C10.176 17.432 9.536 17.752 8.784 17.976C8.032 18.184 7.216 18.288 6.336 18.288C5.168 18.288 4.104 18.136 3.144 17.832C2.184 17.512 1.376 17.096 0.72 16.584L1.872 14.664ZM16.5446 2.04H18.2006V5.976H21.6566V7.848H18.2006V13.872C18.2006 14.336 18.2486 14.728 18.3446 15.048C18.4566 15.368 18.6006 15.624 18.7766 15.816C18.9526 16.008 19.1606 16.152 19.4006 16.248C19.6566 16.328 19.9206 16.368 20.1926 16.368C20.5926 16.368 20.9686 16.304 21.3206 16.176C21.6726 16.048 22.0086 15.896 22.3286 15.72L22.9286 17.448C22.6086 17.64 22.1766 17.824 21.6326 18C21.0886 18.192 20.5206 18.288 19.9286 18.288C18.7286 18.288 17.7766 17.896 17.0726 17.112C16.3846 16.328 16.0406 15.192 16.0406 13.704V7.848H13.8806V5.976H16.0886L16.5446 2.04ZM23.7909 11.832C23.7909 10.904 23.9349 10.04 24.2229 9.24C24.5109 8.424 24.9109 7.72 25.4229 7.128C25.9509 6.536 26.5749 6.072 27.2949 5.736C28.0309 5.4 28.8309 5.232 29.6949 5.232C30.4149 5.232 31.0629 5.36 31.6389 5.616C32.2309 5.856 32.7429 6.16 33.1749 6.528V5.52H35.1429V14.976C35.1429 15.584 35.2869 15.984 35.5749 16.176C35.8789 16.352 36.2069 16.44 36.5589 16.44L36.1029 18.12C34.5669 18.12 33.6389 17.496 33.3189 16.248C33.1269 16.504 32.9029 16.76 32.6469 17.016C32.4069 17.256 32.1269 17.472 31.8069 17.664C31.4869 17.856 31.1269 18.008 30.7269 18.12C30.3269 18.232 29.8869 18.288 29.4069 18.288C28.6229 18.288 27.8869 18.136 27.1989 17.832C26.5269 17.528 25.9349 17.096 25.4229 16.536C24.9269 15.976 24.5269 15.304 24.2229 14.52C23.9349 13.72 23.7909 12.824 23.7909 11.832ZM29.8869 16.368C30.4949 16.368 31.0709 16.224 31.6149 15.936C32.1589 15.648 32.6149 15.272 32.9829 14.808V8.112C32.5509 7.808 32.0709 7.568 31.5429 7.392C31.0309 7.2 30.4869 7.104 29.9109 7.104C29.3349 7.104 28.8069 7.216 28.3269 7.44C27.8469 7.664 27.4309 7.984 27.0789 8.4C26.7429 8.8 26.4789 9.288 26.2869 9.864C26.0949 10.44 25.9989 11.072 25.9989 11.76C25.9989 12.432 26.0949 13.056 26.2869 13.632C26.4789 14.192 26.7509 14.68 27.1029 15.096C27.4549 15.496 27.8629 15.808 28.3269 16.032C28.8069 16.256 29.3269 16.368 29.8869 16.368ZM47.1771 7.8C46.7131 7.576 46.2811 7.416 45.8811 7.32C45.4811 7.208 45.0331 7.152 44.5371 7.152C43.9771 7.152 43.4491 7.256 42.9531 7.464C42.4731 7.672 42.0571 7.976 41.7051 8.376C41.3531 8.76 41.0731 9.232 40.8651 9.792C40.6731 10.352 40.5771 10.992 40.5771 11.712C40.5771 12.368 40.6651 12.976 40.8411 13.536C41.0331 14.096 41.2971 14.592 41.6331 15.024C41.9691 15.44 42.3691 15.768 42.8331 16.008C43.2971 16.248 43.8171 16.368 44.3931 16.368C45.0011 16.368 45.5211 16.304 45.9531 16.176C46.3851 16.048 46.8491 15.848 47.3451 15.576L48.0171 17.4C47.5051 17.672 46.9451 17.888 46.3371 18.048C45.7291 18.208 45.0331 18.288 44.2491 18.288C43.3531 18.288 42.5451 18.128 41.8251 17.808C41.1051 17.488 40.4891 17.04 39.9771 16.464C39.4651 15.888 39.0651 15.2 38.7771 14.4C38.5051 13.6 38.3691 12.72 38.3691 11.76C38.3691 10.864 38.5051 10.024 38.7771 9.24C39.0651 8.44 39.4731 7.744 40.0011 7.152C40.5291 6.56 41.1611 6.096 41.8971 5.76C42.6491 5.408 43.4891 5.232 44.4171 5.232C45.1371 5.232 45.7611 5.296 46.2891 5.424C46.8171 5.552 47.3291 5.736 47.8251 5.976L47.1771 7.8ZM50.5294 0.24H52.6894V10.392L58.3294 5.28L59.5774 6.648L54.7534 10.92L60.6334 16.8L59.1454 18.24L52.6894 11.592V18H50.5294V0.24ZM62.6192 15.192C63.0352 15.56 63.5552 15.856 64.1792 16.08C64.8192 16.304 65.4992 16.416 66.2192 16.416C67.1152 16.416 67.7872 16.272 68.2352 15.984C68.6992 15.68 68.9312 15.296 68.9312 14.832C68.9312 14.592 68.8832 14.368 68.7872 14.16C68.7072 13.952 68.5472 13.752 68.3072 13.56C68.0832 13.368 67.7712 13.184 67.3712 13.008C66.9712 12.816 66.4512 12.608 65.8112 12.384C64.6272 11.984 63.7472 11.512 63.1712 10.968C62.5952 10.408 62.3072 9.64 62.3072 8.664C62.3072 8.184 62.4112 7.736 62.6192 7.32C62.8432 6.904 63.1552 6.544 63.5552 6.24C63.9712 5.92 64.4672 5.672 65.0432 5.496C65.6352 5.32 66.3072 5.232 67.0592 5.232C67.8752 5.232 68.5872 5.32 69.1952 5.496C69.8192 5.656 70.3792 5.864 70.8752 6.12L70.2752 7.896C69.8432 7.64 69.3472 7.432 68.7872 7.272C68.2432 7.112 67.6352 7.032 66.9632 7.032C66.1312 7.032 65.4992 7.2 65.0672 7.536C64.6352 7.872 64.4192 8.24 64.4192 8.64C64.4192 8.832 64.4512 9.008 64.5152 9.168C64.5952 9.328 64.7312 9.48 64.9232 9.624C65.1152 9.768 65.3712 9.912 65.6912 10.056C66.0112 10.2 66.4112 10.352 66.8912 10.512C67.6752 10.784 68.3392 11.064 68.8832 11.352C69.4272 11.624 69.8672 11.928 70.2032 12.264C70.5392 12.6 70.7792 12.968 70.9232 13.368C71.0672 13.752 71.1392 14.184 71.1392 14.664C71.1392 15.224 71.0192 15.728 70.7792 16.176C70.5392 16.624 70.2032 17.008 69.7712 17.328C69.3392 17.632 68.8112 17.864 68.1872 18.024C67.5792 18.2 66.8992 18.288 66.1472 18.288C65.1872 18.288 64.3312 18.168 63.5792 17.928C62.8272 17.688 62.2032 17.376 61.7072 16.992L62.6192 15.192Z" fill="#AF0606"/>
</svg>
